PathFileType	4	(X/Y/Z)	Patient4_TMGait_0pt4_03_left_04.trc.trc
DataRate	CameraRate	NumFrames	NumMarkers	Units	OrigDataRate	OrigDataStartFrame	OrigNumFrames
77.348066298343	77.348066298343	5	33	mm	77.348066298343	36	       141
Frame#	Time	Sacral			L.Shoulder			Chest			R.Shoulder			Neck			R.ASIS			L.ASIS			R.Thigh.Superior			R.Thigh.Lateral			R.Thigh.Inferior			R.Patella			L.Thigh.Superior			L.Thigh.Lateral			L.Thigh.Inferior			L.Patella			L.Shank.Superior			L.Shank.Lateral			L.Shank.Inferior			R.Shank.Superior			R.Shank.Lateral			R.Shank.Inferior			R.Heel			R.Midfoot.Superior			R.Midfoot.Lateral			R.Toe			L.Heel			L.Midfoot.Lateral			L.Midfoot.Superior			L.Toe			L.Elbow			L.Wrist			R.Elbow			R.Wrist			
		X1	Y1	Z1	X2	Y2	Z2	X3	Y3	Z3	X4	Y4	Z4	X5	Y5	Z5	X6	Y6	Z6	X7	Y7	Z7	X8	Y8	Z8	X9	Y9	Z9	X10	Y10	Z10	X11	Y11	Z11	X12	Y12	Z12	X13	Y13	Z13	X14	Y14	Z14	X15	Y15	Z15	X16	Y16	Z16	X17	Y17	Z17	X18	Y18	Z18	X19	Y19	Z19	X20	Y20	Z20	X21	Y21	Z21	X22	Y22	Z22	X23	Y23	Z23	X24	Y24	Z24	X25	Y25	Z25	X26	Y26	Z26	X27	Y27	Z27	X28	Y28	Z28	X29	Y29	Z29	X30	Y30	Z30	X31	Y31	Z31	X32	Y32	Z32	X33	Y33	Z33	

36	5.262500000000	803.254201184769	1006.752646066448	491.425814676838	943.394245799316	1428.672006705833	277.106933690329	1072.342755064070	1368.593577530598	422.261414467491	1014.824332346559	1445.452560041456	604.934353350431	948.309634667817	1495.086503925206	432.118885895539	1041.832889803867	943.348676755822	581.724426169333	999.100337724366	961.559727170707	310.244692912671	1057.350652058299	731.180811323467	557.880831690094	970.450496603718	628.702909817671	629.701492026122	1035.236420043178	565.878036599607	548.258572124793	1025.090650965818	467.162390094730	565.094260255529	1068.588527483399	761.751993741240	334.277114874032	988.786543152322	638.279059047823	277.746065454867	1086.854872801676	569.815282737584	331.697213019137	1094.158768336652	500.422813982520	338.042846156921	1072.642507697992	426.619247666541	329.667834314538	988.217202756867	306.736954696295	281.252868893145	1054.787309597080	198.199831203380	344.985170882683	966.235004421815	391.758210194103	575.636879635306	865.776388847758	320.217235792220	643.833510131773	874.487604685494	213.162991333564	586.819909846110	698.781440658789	82.907839838014	564.829131234362	875.862791309165	102.242019361365	601.881017875120	778.557667862113	57.159363846601	638.290166007367	983.103956856142	37.012619024714	630.177868595893	940.542720160602	38.299990832022	391.029647459973	1010.355280449855	35.531761103495	306.599491215988	1093.524550776244	98.444103231367	329.916960664894	1220.947732630088	49.245860338310	294.996221912935	884.744239937725	1076.494261438007	174.997662772619	972.518763152371	828.639304356287	162.503782936311	1112.677058025526	1107.768205620944	713.135499892984	1347.765609333635	1013.157370452128	663.386723226951	
37	5.275428571429	802.634974438334	1007.095596492816	487.443518917561	944.440568739630	1429.195742103543	273.831410833356	1072.083184994365	1369.237077922276	420.149588384192	1012.965762794584	1446.096038769001	602.270730838665	947.934504088126	1495.643607093993	428.872601091789	1040.424514548426	944.085224816175	579.815292639309	1000.178382144877	962.029403500872	308.063365235927	1060.901779921511	733.171803176953	556.031233927763	976.562415021675	628.820393342052	627.641261734265	1044.039593957036	567.142314016514	546.797058625599	1035.227666703928	466.555003954434	564.727189086333	1068.136772111343	761.156487713001	331.705555267995	986.797848615106	638.253645803808	275.886778153410	1084.069673727895	569.020164819023	330.020508396337	1090.750868987463	499.929753865467	337.004303968160	1069.163415858275	426.215447757043	328.619248423439	984.493472494735	306.541795523991	280.330731684716	1050.253055303428	197.948963733060	344.673291053943	973.872853314143	392.091026833409	574.945556856700	870.726696855605	324.110396453835	642.804233159702	876.764780772589	216.408615500337	586.796402654591	697.116916277613	92.401020102658	564.965101495721	874.659803005885	104.160498978248	602.175018403598	775.625665742178	63.124229884363	638.320564581818	978.398121534183	36.359817940957	630.188440362256	935.374518366880	38.285394073319	390.907737214301	1005.157375210206	35.455888924874	306.456976880033	1088.302386079530	98.375325450185	329.798011827203	1215.770556689387	49.247036142660	294.830049899577	891.972871470353	1076.528004840392	169.248432626750	985.141708114159	830.643599892847	157.116649451251	1105.964821924436	1106.998923031412	711.363681623363	1334.242638512144	994.293003823150	664.216231347941	
38	5.288357142857	801.865221499116	1007.307944159849	483.503548121492	945.682915940515	1429.597993113940	270.634711062473	1071.837778080949	1369.712264755216	418.231253686386	1010.979006069477	1446.566398000551	599.755158160116	947.602944668565	1496.081385641578	425.698609958142	1038.874523308363	944.659473132071	578.061700362219	1001.152590453160	962.404821131977	306.063313855570	1064.806089017047	735.365335721153	554.338158136476	983.198251765991	629.048489431224	625.683801890587	1053.468858533798	568.673762524423	545.516318511628	1046.032814883159	466.337138216691	564.326468710119	1067.383063110284	760.400016024804	329.394578374124	984.736976302399	638.195442686891	274.021629173662	1081.107042409085	568.208671809692	328.546945979861	1087.167626446375	499.375844856427	336.019686870572	1065.507966709948	425.768524047040	327.603626256215	980.653339904022	306.262641906877	279.448935355083	1045.634189219491	197.660095591123	344.402378833018	982.280637824132	392.720497341129	574.212399603533	876.612137696576	328.407801549735	641.808606862593	879.790644999911	220.177334222105	586.759581328524	696.281376925332	103.118627689182	565.120398281363	873.962090306870	106.549444836457	602.445644091956	773.221320613068	70.108237463292	638.388465667430	973.736594121959	35.635223724664	630.211347464871	930.156952042080	38.255454253076	390.833895312955	999.908489513608	35.362418830438	306.360429416482	1083.057283331482	98.238229694737	329.738689733240	1210.557760578112	49.130711119379	294.711850204054	899.143211098699	1076.662397938424	163.525734215940	997.935301465131	832.954782396582	151.753758077724	1098.763093049005	1106.042818821717	709.692696781952	1319.047334275276	976.084400296196	665.625456976372	
39	5.301285714286	800.947408665646	1007.375041818542	479.654218400363	947.099527488852	1429.858934214781	267.557789578341	1071.606158847596	1370.002450952613	416.528577456001	1008.887862708526	1446.851999061014	597.416223567532	947.321537900425	1496.394276671032	422.627796984435	1037.207552182123	945.079115914382	576.433119114672	1001.977517937693	962.697997919774	304.216308925878	1068.968113954812	737.771302180942	552.770813435139	990.265213629085	629.441894821938	623.825520159671	1063.342839698736	570.523413019277	544.372968178491	1057.330650383966	466.580931567268	563.836059985795	1066.384423624925	759.566126759253	327.393820835587	982.736992508842	638.139400078665	272.122633661916	1078.086059073360	567.419079040763	327.254815629290	1083.517080724923	498.779323109268	335.064498342010	1061.779510330513	425.286386362713	326.608529032937	976.793698783124	305.922123181459	278.555145851370	1040.984673623185	197.343114338212	344.152020125851	991.330205014300	393.693181982185	573.406830627498	883.355528352360	333.095899308578	640.843902634019	883.520446249338	224.474796062142	586.692477496283	696.342797140456	114.982840609307	565.304992043928	873.775324717969	109.477403966552	602.682024091340	771.419186030749	78.099714020011	638.496293542574	969.166382391386	34.833138015431	630.233733743599	924.914874118456	38.218634414351	390.786073912500	994.637068940159	35.263579574291	306.289221484052	1077.812798068214	98.052093407085	329.719926646652	1205.335665822138	48.922827978768	294.630151073255	906.241080266699	1076.869487984464	157.867597204993	1010.847790293621	835.553448520903	146.405452648723	1090.942406549171	1104.854547877439	708.164410531198	1302.199689023785	958.658292462537	667.658166895377	
40	5.314214285714	799.888287260867	1007.300262197953	475.930289293080	948.651988477713	1429.978537856264	264.644023084278	1071.382363928194	1370.112567120874	415.057712242814	1006.717150005377	1446.954901937795	595.280457733874	947.092731784184	1496.590947783332	419.695268764267	1035.453895874390	945.370713867025	574.897712133347	1002.623800659468	962.928102030620	302.489764743206	1073.268135690737	740.398154869060	551.281255955120	997.648521166212	630.060577488672	622.055086820832	1073.452820928954	572.739740612875	543.304735059024	1068.935554828369	467.342642930272	563.210594306225	1065.214226379768	758.726189683294	325.704151361188	980.881167404129	638.101977737196	270.185124827265	1075.107450752382	566.674320266577	326.103920882247	1079.899961580208	498.156059497722	334.117503128743	1058.070037713821	424.776025261635	325.623859689736	972.985177290529	305.544568507421	277.625794676880	1036.349031511312	197.006761406585	343.905249445358	1000.869350027890	395.050356661983	572.509710611637	890.839213896149	338.151029421249	639.904887938116	887.890855084973	229.285673960784	586.584304052958	697.345905486772	127.838265560237	565.529024532989	874.111214650069	112.986413615616	602.877511052924	770.293012783283	87.016443293474	638.640041830237	964.762638095363	33.973615935270	630.229275026732	919.668594854220	38.181156957058	390.747073448587	989.365452920401	35.169375437862	306.226872679280	1072.585013327790	97.837511153527	329.723978736529	1200.123157176963	48.653138021639	294.572531159148	913.264253486449	1077.136858199184	152.314297308457	1023.835297664040	838.433925018073	141.070883993826	1082.396989822714	1103.427929856395	706.827504737905	1283.754089424259	942.132458429351	670.323039196422	
